<svg width="176" height="28" viewBox="0 0 176 28" fill="none" xmlns="http://www.w3.org/2000/svg">
<path d="M5.86989 25.6799C5.24192 26.0026 4.53088 25.4386 4.6573 24.7179L6.00561 17.0325L0.281821 11.578C-0.253098 11.0682 0.0238023 10.1362 0.74041 10.0344L8.70043 8.90358L12.2496 1.87294C12.5693 1.23962 13.4354 1.23962 13.7551 1.87294L17.3043 8.90358L25.2644 10.0344C25.981 10.1362 26.2579 11.0682 25.7229 11.578L19.9992 17.0325L21.3475 24.7179C21.4739 25.4386 20.7628 26.0026 20.1349 25.6799L13.0024 22.014L5.86989 25.6799Z" fill="#9D875C"/>
<path d="M41.8699 25.6799C41.2419 26.0026 40.5309 25.4386 40.6573 24.7179L42.0056 17.0325L36.2818 11.578C35.7469 11.0682 36.0238 10.1362 36.7404 10.0344L44.7004 8.90358L48.2496 1.87294C48.5693 1.23962 49.4354 1.23962 49.7551 1.87294L53.3043 8.90358L61.2644 10.0344C61.981 10.1362 62.2579 11.0682 61.7229 11.578L55.9992 17.0325L57.3475 24.7179C57.4739 25.4386 56.7628 26.0026 56.1349 25.6799L49.0024 22.014L41.8699 25.6799Z" fill="#9D875C"/>
<path d="M77.8699 25.6799C77.2419 26.0026 76.5309 25.4386 76.6573 24.7179L78.0056 17.0325L72.2818 11.578C71.7469 11.0682 72.0238 10.1362 72.7404 10.0344L80.7004 8.90358L84.2496 1.87294C84.5693 1.23962 85.4354 1.23962 85.7551 1.87294L89.3043 8.90358L97.2644 10.0344C97.981 10.1362 98.2579 11.0682 97.7229 11.578L91.9992 17.0325L93.3475 24.7179C93.4739 25.4386 92.7628 26.0026 92.1349 25.6799L85.0024 22.014L77.8699 25.6799Z" fill="#9D875C"/>
<path d="M113.87 25.6799C113.242 26.0026 112.531 25.4386 112.657 24.7179L114.006 17.0325L108.282 11.578C107.747 11.0682 108.024 10.1362 108.74 10.0344L116.7 8.90358L120.25 1.87294C120.569 1.23962 121.435 1.23962 121.755 1.87294L125.304 8.90358L133.264 10.0344C133.981 10.1362 134.258 11.0682 133.723 11.578L127.999 17.0325L129.347 24.7179C129.474 25.4386 128.763 26.0026 128.135 25.6799L121.002 22.014L113.87 25.6799Z" fill="#9D875C"/>
<path fill-rule="evenodd" clip-rule="evenodd" d="M148.657 24.7179C148.531 25.4386 149.242 26.0026 149.87 25.6799L157.002 22.014L164.135 25.6799C164.763 26.0026 165.474 25.4386 165.347 24.7179L163.999 17.0325L169.723 11.578C170.258 11.0682 169.981 10.1362 169.264 10.0344L161.304 8.90358L157.755 1.87294C157.435 1.23962 156.569 1.23962 156.25 1.87294L152.7 8.90358L144.74 10.0344C144.024 10.1362 143.747 11.0682 144.282 11.578L150.006 17.0325L148.657 24.7179ZM156.627 20.2197L150.638 23.2981L151.766 16.8675C151.819 16.5643 151.719 16.2539 151.502 16.0465L146.778 11.5451L153.363 10.6096C153.635 10.571 153.873 10.3971 154.001 10.1427L157.002 4.19795L160.003 10.1427C160.132 10.3971 160.37 10.571 160.642 10.6096L167.227 11.5451L162.503 16.0465C162.285 16.2539 162.185 16.5643 162.239 16.8675L163.367 23.2981L157.377 20.2197C157.141 20.0981 156.864 20.0981 156.627 20.2197Z" fill="#9D875C"/>
</svg>
