<svg width="1402" height="819" viewBox="0 0 1402 819" fill="none" xmlns="http://www.w3.org/2000/svg">
<g style="mix-blend-mode:screen">
<g style="mix-blend-mode:screen">
<path d="M1254.48 75.1691L1253.96 75.4091H1253.58C1252.83 76.1303 1252.36 77.1017 1252.26 78.1458C1252.21 79.0514 1252.49 79.9432 1253.05 80.6514C1253.61 81.3596 1254.4 81.8348 1255.28 81.9866H1256.28H1256.94H1257.32H1257.55C1257.92 81.6598 1258.22 81.2621 1258.43 80.8168C1258.64 80.3715 1258.76 79.8877 1258.78 79.3941C1258.82 78.6937 1258.67 77.9964 1258.36 77.3726C1258.04 76.7488 1257.57 76.2205 1256.99 75.8412H1256.61H1256.04H1255.62H1254.67L1254.48 75.1691Z" fill="#E7B851"/>
</g>
<g style="mix-blend-mode:screen">
<path d="M1292.08 81.8426L1292.32 82.2268L1292.98 82.8029H1293.26H1293.64H1293.92C1294.56 82.9166 1295.22 82.8411 1295.81 82.5856C1296.41 82.3301 1296.92 81.9053 1297.28 81.3625C1297.71 80.7156 1297.93 79.9556 1297.93 79.178C1297.93 78.4005 1297.71 77.6404 1297.28 76.9936L1296.86 76.5614L1296.1 76.1293H1295.49H1294.16H1293.55L1292.79 76.5614L1292.36 76.9936C1291.93 77.5349 1291.64 78.185 1291.53 78.8771C1291.42 79.5692 1291.5 80.278 1291.75 80.9304L1292.08 81.8426Z" fill="#EADECF"/>
</g>
<g style="mix-blend-mode:screen">
<path d="M1155.02 22.2124V22.8364V23.3646C1155.37 24.143 1156 24.7554 1156.78 25.0767C1157.57 25.3979 1158.44 25.4037 1159.23 25.0929L1159.61 24.8529L1160.08 24.4689L1160.36 24.1328L1160.69 23.7967L1161.07 23.2206V22.7885V21.8762V21.4921V20.916V20.5319C1160.88 20.0555 1160.58 19.6282 1160.2 19.2799C1159.83 18.9317 1159.38 18.6708 1158.9 18.5154C1158.43 18.3561 1157.93 18.3037 1157.44 18.3618C1156.95 18.4199 1156.48 18.5871 1156.06 18.8515L1155.3 19.3317L1155.02 19.7157L1154.69 20.2918V20.7719V21.8282L1155.02 22.2124Z" fill="#F9E59F"/>
</g>
<g style="mix-blend-mode:screen">
<path d="M1278.74 11.5058C1278.72 12.066 1278.81 12.625 1279.02 13.1462C1279.22 13.6674 1279.53 14.1392 1279.93 14.5305L1280.35 14.8186L1280.97 15.1066H1281.44H1283L1283.61 14.8666L1283.99 14.6265C1284.49 14.1811 1284.88 13.6217 1285.13 12.9941L1285.65 12.322V11.7938V10.5455V9.96937L1285.36 9.15326L1285.08 8.67312C1284.75 8.2994 1284.35 7.99525 1283.91 7.77833C1283.47 7.5614 1282.98 7.43602 1282.49 7.40924C1282 7.38247 1281.51 7.4548 1281.04 7.62228C1280.58 7.78976 1280.15 8.04907 1279.78 8.38506C1279.05 9.25016 1278.68 10.3682 1278.74 11.5058Z" fill="#C47F1E"/>
</g>
<g style="mix-blend-mode:screen">
<path d="M1387.81 1.90372L1387.47 2.47983V2.91192C1387.4 3.47069 1387.44 4.04007 1387.6 4.57945C1387.77 5.11883 1388.05 5.61494 1388.42 6.03263C1388.78 6.42807 1389.22 6.74006 1389.71 6.9472C1390.2 7.15434 1390.73 7.25175 1391.26 7.23291H1391.59H1392.06L1392.68 6.94486L1393.06 6.6568L1393.81 5.84069V5.45651L1394.05 4.83234V4.40026V3.344V2.864V1.90372L1393.77 1.47163L1392.96 0.703433L1392.58 0.415376L1391.92 0.127319H1391.45H1390.41H1389.98L1389.37 0.367318L1388.94 0.607463L1388.18 1.3276L1387.81 1.90372Z" fill="#E7D8C6"/>
</g>
<g style="mix-blend-mode:screen">
<path d="M1295.63 28.9342L1294.63 29.8943L1294.3 30.3744L1294.02 31.0946V31.6228C1294.01 32.1991 1294.13 32.7702 1294.37 33.2938C1294.6 33.8174 1294.95 34.2801 1295.39 34.6475C1295.8 34.9556 1296.27 35.1707 1296.77 35.2784C1297.26 35.3861 1297.78 35.3839 1298.28 35.2717H1298.65L1299.17 34.9836L1299.46 34.6954L1300.07 33.9753V33.5913V32.9671V32.535C1300.09 31.6993 1299.84 30.8812 1299.36 30.1993C1298.88 29.5174 1298.21 29.007 1297.42 28.7421H1296.72H1295.82L1295.63 28.9342Z" fill="#F9F6D2"/>
</g>
<g style="mix-blend-mode:screen">
<path d="M1220.85 34.5992H1221.37H1222.13H1222.65H1222.93C1223.49 34.5784 1224.03 34.4185 1224.51 34.1336C1224.99 33.8487 1225.39 33.4478 1225.68 32.9669V32.4387V31.7185V31.1905L1225.2 29.8461V29.4141C1224.74 28.7578 1224.1 28.2561 1223.36 27.9736H1222.89H1222.37H1221.66H1221.18L1220.29 28.5978L1219.95 28.8859L1219.58 29.4141V29.9421C1219.36 30.3327 1219.22 30.7633 1219.16 31.2092C1219.11 31.6551 1219.14 32.1074 1219.26 32.5402C1219.38 32.973 1219.58 33.3777 1219.85 33.7311C1220.13 34.0845 1220.47 34.3795 1220.85 34.5992Z" fill="#DFCBB3"/>
</g>
<g style="mix-blend-mode:screen">
<path d="M1367.33 44.2015L1367.04 44.5376V44.7776L1366.62 45.5458V45.8339V46.266V46.6021C1366.6 47.2521 1366.78 47.8917 1367.12 48.4391C1367.47 48.9866 1367.97 49.4169 1368.56 49.6749C1369.25 49.9988 1370.02 50.1033 1370.77 49.9748C1371.52 49.8463 1372.22 49.4908 1372.77 48.9546L1373.1 48.4265L1373.38 47.5624V46.9382V45.6418V45.0657L1372.81 44.3455L1372.34 43.9615C1371.74 43.6253 1371.06 43.4489 1370.38 43.4489C1369.69 43.4489 1369.02 43.6253 1368.42 43.9615L1367.33 44.2015Z" fill="#53240B"/>
</g>
<g style="mix-blend-mode:screen">
<path d="M1233.24 232.79L1232.49 234.039V234.711V235.719V236.391L1232.77 236.967V237.352V237.88C1233.14 238.993 1233.79 239.987 1234.66 240.76L1235.37 241.048H1236.46H1237.26L1238.54 240.28L1239.01 239.656L1239.44 238.6V237.832V237.111V236.871C1239.36 236.333 1239.23 235.803 1239.06 235.287C1238.81 234.407 1238.32 233.618 1237.64 233.014C1236.96 232.41 1236.12 232.016 1235.23 231.878H1234.52L1233.62 232.31L1233.24 232.79Z" fill="#F9D46B"/>
</g>
<g style="mix-blend-mode:screen">
<path d="M1349.73 16.691C1348.8 16.0661 1347.67 15.8259 1346.56 16.0189H1346.14L1345.57 16.4029L1345.19 16.7871L1344.63 17.6993V18.1314V18.8035V19.2356C1344.74 19.8991 1344.99 20.5341 1345.33 21.1081L1345.62 21.8763L1345.95 22.3564L1346.9 23.2206L1347.37 23.5087H1348.17H1348.74C1349.72 23.3435 1350.6 22.7922 1351.18 21.9745C1351.77 21.1567 1352.01 20.1382 1351.86 19.1396C1351.68 18.6085 1351.41 18.1185 1351.04 17.6982C1350.67 17.2778 1350.23 16.9354 1349.73 16.691Z" fill="#F1E9E1"/>
</g>
<g style="mix-blend-mode:screen">
<path d="M1359.19 86.5477V87.2678V87.5559V87.9879V88.2281L1359.71 88.8521V89.0923L1360.09 89.3803H1360.37C1360.98 89.6269 1361.63 89.7036 1362.27 89.6021C1362.91 89.5007 1363.52 89.225 1364.02 88.8042C1364.49 88.391 1364.86 87.8668 1365.08 87.2772C1365.31 86.6876 1365.39 86.0504 1365.32 85.4211C1365.25 84.7917 1365.03 84.1893 1364.68 83.6661C1364.33 83.1428 1363.86 82.7145 1363.31 82.4186C1362.86 82.2051 1362.38 82.0944 1361.89 82.0944C1361.4 82.0944 1360.91 82.2051 1360.47 82.4186C1359.83 82.8624 1359.36 83.5106 1359.13 84.2592C1358.9 85.0078 1358.92 85.8137 1359.19 86.5477Z" fill="#4B2008"/>
</g>
<g style="mix-blend-mode:screen">
<path d="M1316.44 74.3046V73.9206V73.2484L1316.15 72.7684L1315.82 72.3842V71.8081L1315.11 70.7518L1314.69 70.3678L1313.98 69.9357H1313.41C1312.92 69.9085 1312.42 69.9864 1311.96 70.1643C1311.5 70.3422 1311.08 70.6162 1310.73 70.9688C1310.37 71.3214 1310.1 71.7449 1309.92 72.2119C1309.74 72.6789 1309.65 73.1791 1309.67 73.6806L1310.29 74.4007V75.0728L1311.23 76.2731V76.8492C1311.66 77.3062 1312.22 77.6268 1312.82 77.772C1313.43 77.9172 1314.06 77.881 1314.65 77.6675C1315.23 77.4541 1315.75 77.0725 1316.12 76.5694C1316.5 76.0662 1316.72 75.463 1316.77 74.8328L1316.44 74.3046Z" fill="#EEE3D8"/>
</g>
<g style="mix-blend-mode:screen">
<path d="M1252.4 104.456L1252.82 105.416L1253.11 105.8L1253.58 106.28L1253.96 106.521L1254.95 106.953H1255.38H1256.04H1256.51C1257.03 106.787 1257.51 106.51 1257.91 106.141C1258.31 105.772 1258.63 105.32 1258.85 104.814C1259.06 104.309 1259.17 103.762 1259.16 103.212C1259.15 102.661 1259.02 102.119 1258.78 101.623V101.335L1258.45 100.951L1257.93 100.519L1257.51 100.279L1256.51 99.943H1255.43H1254.95L1254.01 100.375L1253.63 100.663L1253.16 101.191L1252.87 101.575L1252.16 102.728V103.208V103.928L1252.4 104.456Z" fill="#9F5504"/>
</g>
<g style="mix-blend-mode:screen">
<path d="M1366.57 96.678L1366.14 96.9182L1365.62 97.3983L1365.34 97.7823L1364.82 98.7905V99.2707V99.9908V100.519C1364.98 101.08 1365.25 101.599 1365.63 102.039C1366 102.479 1366.47 102.829 1367 103.064H1367.37H1368.7H1369.08H1369.36C1370.1 102.646 1370.67 101.964 1370.95 101.149C1371.23 100.334 1371.2 99.4428 1370.87 98.6465C1370.53 97.8324 1369.89 97.1791 1369.1 96.8149C1368.3 96.4506 1367.4 96.4018 1366.57 96.678Z" fill="#F9DD85"/>
</g>
<g style="mix-blend-mode:screen">
<path d="M1371.3 66.0468L1370.59 67.2951V67.8712V68.6394V69.1676C1370.73 69.7222 1371.01 70.2336 1371.39 70.6595C1371.76 71.0854 1372.24 71.4134 1372.77 71.6161C1373.24 71.7975 1373.76 71.8659 1374.27 71.816C1374.77 71.766 1375.26 71.5992 1375.7 71.3281L1376.03 71.04L1376.41 70.6079V70.2718L1376.74 69.3596V68.9275V68.3033V67.8712C1376.5 67.0634 1376.01 66.3538 1375.35 65.8447C1374.69 65.3357 1373.88 65.0534 1373.05 65.0386H1372.39L1371.58 65.4707L1371.3 66.0468Z" fill="#662B02"/>
</g>
<g style="mix-blend-mode:screen">
<path d="M1350.16 9.20116H1350.82L1351.67 8.86519L1352.19 8.48102L1353.04 7.42476L1353.33 6.84864V6.03239H1353.71L1354.32 5.50433L1354.7 5.02419L1355.17 3.92002V3.63182C1355.41 2.91604 1355.41 2.13911 1355.17 1.42333C1354.97 0.683605 1354.52 0.0401674 1353.9 -0.391161C1353.27 -0.82249 1352.52 -1.0133 1351.77 -0.92918H1351.34L1350.73 -0.689181L1350.4 -0.401124L1349.64 0.319164V0.607221V0.991247L1348.88 0.607221C1348.27 0.32191 1347.6 0.174257 1346.92 0.174257C1346.24 0.174257 1345.57 0.32191 1344.96 0.607221L1344.48 1.08722L1343.96 1.90348V2.57571V4.01599V4.64016L1344.44 5.50433L1344.96 5.98447C1345.36 6.23886 1345.72 6.54557 1346.04 6.8967C1347.16 8.06848 1348.59 8.87171 1350.16 9.20116Z" fill="#8C4703"/>
</g>
<g style="mix-blend-mode:screen">
<path d="M1330.96 133.839L1330.67 134.415H1330.39C1330.11 135.066 1329.99 135.771 1330.01 136.48V137.296V137.68L1330.34 138.208L1330.63 138.496L1331.38 139.072H1333.13L1334.27 137.632V136.431V136.191V134.415L1333.09 133.023H1331.29L1330.53 133.695L1330.96 133.839Z" fill="#F9E59F"/>
</g>
<g style="mix-blend-mode:screen">
<path d="M1394.05 62.1576L1393.62 61.6296L1393.34 61.2934C1392.8 60.8161 1392.14 60.483 1391.44 60.3238C1390.74 60.1646 1390.01 60.1843 1389.32 60.3812C1388.71 60.6025 1388.15 60.9649 1387.7 61.4397C1387.25 61.9145 1386.91 62.4888 1386.72 63.1179C1386.48 63.9325 1386.43 64.7943 1386.59 65.6303C1386.74 66.4662 1387.1 67.2514 1387.62 67.919C1388.16 68.4896 1388.83 68.9152 1389.57 69.1582C1390.32 69.4011 1391.11 69.4538 1391.87 69.3114H1392.3L1392.87 68.9753L1393.2 68.6392L1393.86 67.775V67.3429V66.6707V66.3347V65.7585C1394.14 64.7213 1394.14 63.627 1393.86 62.5898L1394.05 62.1576Z" fill="#F9EEB8"/>
</g>
<g style="mix-blend-mode:screen">
<path d="M1388.33 68.6393V68.9755V69.4556V70.7999V71.1839C1388.38 71.7741 1388.6 72.3379 1388.94 72.8163L1389.27 73.2005L1389.93 73.5845H1390.41H1391.68H1392.02C1392.64 73.5311 1393.24 73.3163 1393.77 72.9603L1394.1 72.5763L1394.47 71.9521V71.472V70.1757V69.5996L1394.81 69.2635L1395.42 68.3513V67.8711V67.1991V66.7189C1395.19 65.8061 1394.71 64.9756 1394.05 64.3183L1393.39 63.7903H1393.01H1392.44H1391.07H1390.64L1390.08 64.0303L1389.7 64.2703C1389.22 64.6648 1388.83 65.1619 1388.56 65.7261C1388.29 66.2903 1388.15 66.9081 1388.14 67.5352C1388.15 67.9107 1388.21 68.2826 1388.33 68.6393Z" fill="#793903"/>
</g>
<g style="mix-blend-mode:screen">
<path d="M1244.64 246.186V245.657V244.841C1244.62 244.281 1244.48 243.732 1244.23 243.234C1243.97 242.736 1243.62 242.301 1243.18 241.961C1242.55 241.443 1241.79 241.133 1240.98 241.073C1240.18 241.013 1239.37 241.206 1238.68 241.626C1237.99 242.045 1237.44 242.671 1237.11 243.418C1236.78 244.166 1236.69 244.998 1236.84 245.801V246.33L1237.12 246.81V247.05L1238.21 247.914L1238.64 248.154H1239.3H1239.77H1240.91H1241.38L1241.95 247.818L1242.33 247.482L1243.18 246.378L1244.64 246.186Z" fill="#793903"/>
</g>
<g style="mix-blend-mode:screen">
<path d="M1226.81 191.212L1227.05 190.924V190.492V190.156V189.292V188.38V188.044C1226.49 186.994 1225.59 186.164 1224.52 185.686C1223.44 185.208 1222.23 185.108 1221.09 185.403L1220.38 185.835L1219.62 186.747L1219.34 187.564V189.148L1219.62 189.916L1220.29 190.828L1220.81 191.212L1221.23 191.453C1223.79 192.701 1225.54 192.653 1226.81 191.212Z" fill="#F9E59F"/>
</g>
<g style="mix-blend-mode:screen">
<path d="M1384.83 98.9346L1384.31 98.6465H1383.74C1383.25 98.3977 1382.72 98.2681 1382.18 98.2681C1381.64 98.2681 1381.1 98.3977 1380.62 98.6465L1379.81 99.2226V99.4628L1379.58 99.8468V100.135V100.807V101.095V101.815C1379.65 102.381 1379.85 102.92 1380.18 103.388C1380.5 103.856 1380.92 104.239 1381.42 104.504C1382.02 104.816 1382.69 104.978 1383.36 104.978C1384.03 104.978 1384.7 104.816 1385.3 104.504C1385.78 104.253 1386.19 103.884 1386.5 103.432C1386.8 102.979 1386.99 102.457 1387.05 101.911V100.903L1386.72 100.135L1386.34 99.6068L1384.83 98.9346Z" fill="#EADECF"/>
</g>
<g style="mix-blend-mode:screen">
<path d="M1274.68 107.529L1275.05 107.097V106.712L1275.43 105.8V105.416V104.36V103.688V103.304L1275.05 102.776L1274.72 102.439L1273.68 101.815H1273.45C1272.97 101.596 1272.45 101.497 1271.93 101.527H1271.32L1270.56 102.007L1270.14 102.487L1269.47 103.736V104.216V105.416C1269.6 105.989 1269.86 106.522 1270.23 106.973C1270.6 107.424 1271.07 107.779 1271.6 108.009C1272.1 108.176 1272.62 108.236 1273.14 108.187C1273.67 108.137 1274.17 107.979 1274.63 107.721L1274.68 107.529Z" fill="#E7D8C6"/>
</g>
<g style="mix-blend-mode:screen">
<path d="M1389.32 48.5225V48.0424L1388.99 47.3703L1388.7 46.9863L1387.85 46.266L1387.43 46.026L1386.77 45.786H1386.25C1385.67 45.8103 1385.11 45.9551 1384.6 46.2114C1384.09 46.4676 1383.63 46.8297 1383.27 47.2744V47.5144V47.8505V48.0905V48.9067V49.8669C1383.45 50.7094 1383.94 51.4484 1384.65 51.931C1385.35 52.4136 1386.21 52.6029 1387.05 52.4595C1387.83 52.1864 1388.49 51.6393 1388.9 50.9173C1389.32 50.1952 1389.47 49.3458 1389.32 48.5225Z" fill="#F9F6D2"/>
</g>
<g style="mix-blend-mode:screen">
<path d="M1325.47 239.32V238.311L1325.19 236.967V236.535C1324.83 235.398 1324.05 234.448 1323.01 233.895H1322.4H1321.26H1319.98L1319.13 234.375C1318.48 235.237 1318.2 236.323 1318.33 237.399C1318.4 237.93 1318.57 238.442 1318.84 238.903C1319.11 239.365 1319.47 239.767 1319.89 240.088C1320.3 240.43 1320.77 240.683 1321.28 240.831C1321.79 240.978 1322.32 241.017 1322.85 240.945C1323.37 240.873 1323.87 240.691 1324.33 240.411C1324.78 240.132 1325.17 239.76 1325.47 239.32Z" fill="#F9DD85"/>
</g>
<g style="mix-blend-mode:screen">
<path d="M1364.68 180.554C1364.67 181.051 1364.77 181.543 1364.97 181.998C1365.16 182.453 1365.45 182.861 1365.81 183.195C1366.42 183.827 1367.22 184.225 1368.08 184.322C1368.95 184.418 1369.82 184.206 1370.54 183.723H1370.87L1371.25 183.435L1371.68 182.907V182.474V182.138C1372 181.752 1372.24 181.297 1372.37 180.808C1372.5 180.318 1372.52 179.805 1372.43 179.306C1372.28 178.453 1371.81 177.694 1371.11 177.193C1370.39 176.571 1369.48 176.229 1368.53 176.229C1367.59 176.229 1366.67 176.571 1365.96 177.193C1365.51 177.619 1365.16 178.143 1364.94 178.725C1364.72 179.307 1364.63 179.932 1364.68 180.554Z" fill="#C47F1E"/>
</g>
<g style="mix-blend-mode:screen">
<path d="M1255.62 12.5621V11.9379H1255.38H1255.66C1255.83 11.2441 1255.83 10.5192 1255.66 9.82537L1255.33 9.05717L1255.05 8.7212L1254.62 8.33703H1254.29L1253.39 7.953L1251.78 8.62509L1251.07 10.3536L1251.55 11.4577V11.7458L1251.88 13.5223L1253.39 14.5305L1255.14 14.1464L1255.71 13.2822L1255.62 12.5621Z" fill="#F9F6D2"/>
</g>
<g style="mix-blend-mode:screen">
<path d="M1320.74 102.343L1321.17 102.823L1321.55 103.111C1322.12 103.54 1322.78 103.817 1323.48 103.917C1324.19 104.018 1324.9 103.939 1325.57 103.688C1326.18 103.436 1326.71 103.031 1327.13 102.51C1327.54 101.989 1327.82 101.37 1327.93 100.711C1328.14 99.8663 1328.13 98.9828 1327.9 98.1431C1327.68 97.3033 1327.25 96.5348 1326.65 95.9097C1326.06 95.3832 1325.35 95.0153 1324.58 94.8392C1323.81 94.6632 1323.01 94.6846 1322.25 94.9015H1321.88L1321.31 95.3336L1321.03 95.6697L1320.46 96.5819V97.014V97.6862V98.6464C1320.3 99.718 1320.43 100.812 1320.84 101.815L1320.74 102.343Z" fill="#D6BDA1"/>
</g>
<g style="mix-blend-mode:screen">
<path d="M1253.96 183.386L1252.73 184.155L1252.26 184.683L1251.83 185.547V186.267V186.891V187.275V187.852C1251.65 189.002 1251.78 190.18 1252.21 191.26L1252.73 191.885L1253.63 192.461H1254.43H1255.9L1256.66 192.173L1257.46 191.453L1257.84 190.732V190.06V189.82C1257.99 189.303 1258.1 188.773 1258.17 188.236C1258.34 187.336 1258.25 186.405 1257.91 185.555C1257.58 184.704 1257.01 183.968 1256.28 183.435H1255.62H1254.62L1253.96 183.386Z" fill="#3B1703"/>
</g>
<g style="mix-blend-mode:screen">
<path d="M1394.05 84.0032C1394.54 83.7379 1394.97 83.3762 1395.32 82.9392C1395.67 82.5022 1395.93 81.9989 1396.08 81.4586V80.9785V80.2584V79.8263L1395.56 78.8179L1395.28 78.482L1394.76 78.0497L1394.33 77.8097C1393.7 77.6565 1393.03 77.6565 1392.39 77.8097H1391.59H1391.02L1389.84 78.2418L1389.37 78.5779L1388.85 79.2021L1388.56 79.6822C1388.41 80.1551 1388.34 80.6544 1388.38 81.1517C1388.41 81.649 1388.54 82.1345 1388.76 82.5804C1388.98 83.0263 1389.29 83.424 1389.66 83.7505C1390.03 84.077 1390.46 84.3261 1390.93 84.4834C1391.45 84.6186 1392 84.6457 1392.54 84.5632C1393.07 84.4808 1393.59 84.2904 1394.05 84.0032Z" fill="#DFCBB3"/>
</g>
<g style="mix-blend-mode:screen">
<path d="M1345.71 75.601L1346 74.9288V74.6408V73.9206V73.1524V72.8163V72.3842V72.0962C1345.64 71.5515 1345.14 71.1161 1344.56 70.837C1343.98 70.5578 1343.33 70.4455 1342.69 70.5119C1342.01 70.5786 1341.37 70.8336 1340.82 71.2487C1340.28 71.6638 1339.86 72.2229 1339.61 72.8644C1339.35 73.3774 1339.22 73.945 1339.22 74.5208C1339.22 75.0965 1339.35 75.6641 1339.61 76.1772C1339.85 76.6191 1340.18 77.0006 1340.58 77.292C1340.98 77.5834 1341.44 77.7769 1341.93 77.8576C1342.72 77.9947 1343.53 77.8434 1344.23 77.4305C1344.92 77.0176 1345.45 76.3696 1345.71 75.601Z" fill="#F9DD85"/>
</g>
<g style="mix-blend-mode:screen">
<path d="M1309.63 125.533L1309.25 125.917L1308.92 126.733V127.213V127.742L1308.59 128.27L1308.16 129.47V130.046V130.91L1308.4 131.438C1308.66 131.864 1309.01 132.228 1309.42 132.504C1309.84 132.781 1310.3 132.964 1310.79 133.041C1311.28 133.119 1311.78 133.088 1312.26 132.953C1312.73 132.817 1313.17 132.579 1313.55 132.255V131.342L1314.12 131.054L1314.5 129.566L1314.88 129.134C1314.98 128.483 1314.9 127.814 1314.64 127.209C1314.38 126.603 1313.95 126.088 1313.41 125.725C1312.88 125.284 1312.23 125.027 1311.55 124.992C1310.87 124.957 1310.19 125.147 1309.63 125.533Z" fill="#C47F1E"/>
</g>
<g style="mix-blend-mode:screen">
<path d="M1396.74 139.648V139.216V138.496V137.968V136.864V136.432L1396.32 135.855L1395.94 135.519C1395.48 135.175 1394.94 134.944 1394.38 134.844C1393.81 134.744 1393.23 134.778 1392.68 134.943H1392.44H1392.11L1391.5 135.471L1391.26 135.759V135.999C1390.92 136.8 1390.9 137.699 1391.19 138.518C1391.48 139.337 1392.06 140.015 1392.82 140.417C1393.47 140.711 1394.2 140.795 1394.9 140.657C1395.6 140.52 1396.25 140.168 1396.74 139.648Z" fill="#6D341B"/>
</g>
<g style="mix-blend-mode:screen">
<path d="M1363.69 181.802L1363.12 181.178H1362.79L1362.22 180.938H1361.79H1360.8H1360.33H1359.76H1359.33L1358.81 181.322L1358.48 181.706L1358.1 182.33V182.763V183.915V184.395V185.067V185.499L1358.72 186.363L1359.05 186.699L1359.62 187.036H1360.04H1361.08H1361.56H1362.22H1362.64C1363.08 186.778 1363.45 186.432 1363.75 186.018C1364.04 185.605 1364.24 185.134 1364.35 184.635C1364.5 183.639 1364.26 182.622 1363.69 181.802Z" fill="#D59C38"/>
</g>
<g style="mix-blend-mode:screen">
<path d="M1398.4 203.552V204.176L1398.68 204.56C1399.1 205.144 1399.66 205.609 1400.31 205.912C1400.95 206.215 1401.66 206.344 1402.37 206.288C1403.02 206.224 1403.65 205.998 1404.19 205.63C1404.74 205.261 1405.19 204.762 1405.49 204.176C1405.91 203.404 1406.13 202.537 1406.13 201.655C1406.13 200.774 1405.91 199.907 1405.49 199.135C1405.11 198.437 1404.55 197.86 1403.86 197.462C1403.18 197.065 1402.4 196.863 1401.62 196.878H1401.14L1400.53 197.118L1400.1 197.358L1399.35 198.078L1399.06 198.462L1398.73 199.039V199.423V199.951C1398.25 200.915 1398.06 201.998 1398.16 203.072L1398.4 203.552Z" fill="#F9E59F"/>
</g>
<g style="mix-blend-mode:screen">
<path d="M1336.11 341.584L1334.93 342.352L1334.46 342.929L1334.08 343.841V344.513V345.185V345.569V346.097C1333.95 347.26 1334.13 348.438 1334.6 349.506L1335.12 350.13L1336.06 350.658H1336.82H1338.34L1339.04 350.322L1339.85 349.554L1340.23 348.834V348.114V347.874C1340.38 347.357 1340.47 346.826 1340.51 346.289C1340.66 345.375 1340.55 344.435 1340.19 343.583C1339.83 342.731 1339.24 342.004 1338.48 341.488H1337.77H1336.77L1336.11 341.584Z" fill="#E7B851"/>
</g>
<g style="mix-blend-mode:screen">
<path d="M1316.82 57.5969V57.0208V56.5887C1316.34 55.6695 1315.52 54.979 1314.55 54.6681C1313.7 54.3903 1312.78 54.443 1311.96 54.8157C1311.15 55.1883 1310.5 55.8545 1310.15 56.6847V56.9727V57.3567V58.6531V59.0372V59.2773C1310.36 59.7204 1310.65 60.1151 1311.02 60.4372C1311.39 60.7592 1311.81 61.0016 1312.28 61.1497C1312.94 61.3574 1313.65 61.3825 1314.34 61.2224C1315.02 61.0622 1315.64 60.7224 1316.15 60.2375V59.9013L1316.44 59.3733V58.9893V58.029L1316.82 57.5969Z" fill="#3B1703"/>
</g>
<g style="mix-blend-mode:screen">
<path d="M1395.61 198.174L1396.32 198.942L1396.7 199.23L1397.27 199.519H1397.74H1398.78H1399.25H1399.87H1400.29C1400.74 199.181 1401.11 198.749 1401.38 198.251C1401.65 197.754 1401.81 197.204 1401.85 196.638C1401.9 196.11 1401.83 195.579 1401.65 195.081C1401.47 194.584 1401.18 194.132 1400.81 193.757V193.517L1400.39 193.229L1399.77 192.989H1399.3H1398.26H1397.79L1397.17 193.229L1396.79 193.469L1396.04 194.189L1395.75 194.573L1395.42 195.245V195.726V196.83V197.31L1395.66 197.982L1395.61 198.174Z" fill="#F9F6D2"/>
</g>
<g style="mix-blend-mode:screen">
<path d="M1400.48 252.331V251.563L1400.2 250.699V250.411V250.027V249.787C1399.71 249.355 1399.12 249.072 1398.48 248.97C1397.85 248.868 1397.19 248.952 1396.6 249.21C1395.9 249.526 1395.31 250.047 1394.91 250.706C1394.51 251.365 1394.3 252.131 1394.33 252.907V253.531L1394.76 254.3L1395.18 254.732L1396.32 255.452H1396.89H1397.79H1398.4C1399.05 255.215 1399.62 254.812 1400.07 254.282C1400.52 253.752 1400.82 253.113 1400.95 252.427L1400.48 252.331Z" fill="#F9E59F"/>
</g>
<path d="M754.636 -1338.21L671.029 -1253.34L2386.65 488.256L2470.26 403.383L754.636 -1338.21Z" fill="url(#paint0_linear_1_4168)"/>
<path d="M686.068 -1268.59L671.019 -1253.31L2386.64 488.281L2401.69 473.004L686.068 -1268.59Z" fill="url(#paint1_linear_1_4168)"/>
<path d="M286.922 -1038.51L281.704 -1033.21L2105.22 817.903L2110.43 812.607L286.922 -1038.51Z" fill="url(#paint2_linear_1_4168)"/>
<path d="M532.885 -1297.73L527.668 -1292.44L2351.18 558.676L2356.4 553.38L532.885 -1297.73Z" fill="url(#paint3_linear_1_4168)"/>
<path d="M828.494 -1461L823.277 -1455.7L2646.79 395.41L2652 390.114L828.494 -1461Z" fill="url(#paint4_linear_1_4168)"/>
<path d="M194.732 -1041.75L189.514 -1036.45L2013.03 814.661L2018.24 809.365L194.732 -1041.75Z" fill="url(#paint5_linear_1_4168)"/>
<path d="M5.21711 -1037.41L0 -1032.12L1823.51 818.997L1828.73 813.701L5.21711 -1037.41Z" fill="url(#paint6_linear_1_4168)"/>
<path d="M640.382 -1421.35L635.165 -1416.05L2458.68 435.064L2463.89 429.768L640.382 -1421.35Z" fill="url(#paint7_linear_1_4168)"/>
<g style="mix-blend-mode:screen">
<path d="M1730.18 -273.35C1951.8 -48.3687 2116.49 149.15 2098.04 167.971C2079.6 186.791 1884.93 19.5675 1663.3 -205.414C1441.68 -430.395 1276.95 -627.914 1295.44 -646.735C1313.93 -665.555 1508.55 -498.332 1730.18 -273.35Z" fill="url(#paint8_radial_1_4168)"/>
</g>
<g style="mix-blend-mode:screen">
<path d="M1462.96 -237.342C1684.59 -12.3601 1849.27 185.159 1830.82 203.979C1812.38 222.8 1617.71 55.5761 1396.08 -169.405C1174.46 -394.387 1009.73 -591.906 1028.22 -610.726C1046.71 -629.547 1241.33 -462.323 1462.96 -237.342Z" fill="url(#paint9_radial_1_4168)"/>
</g>
</g>
<defs>
<linearGradient id="paint0_linear_1_4168" x1="556.052" y1="-1448.14" x2="2646.88" y2="598.14" gradientUnits="userSpaceOnUse">
<stop stop-color="#F4EFEA"/>
<stop offset="0.06" stop-color="#F3EDE8"/>
<stop offset="0.53" stop-color="#EEE3D8"/>
<stop offset="0.99" stop-color="#E3D1BD"/>
</linearGradient>
<linearGradient id="paint1_linear_1_4168" x1="2190.2" y1="273.586" x2="1135.38" y2="-765.503" gradientUnits="userSpaceOnUse">
<stop stop-color="#F4E0AE"/>
<stop offset="0.2" stop-color="#EACD8C"/>
<stop offset="0.32" stop-color="#E5C47C"/>
<stop offset="0.36" stop-color="#E0BE77"/>
<stop offset="0.42" stop-color="#D2AD69"/>
<stop offset="0.5" stop-color="#BC9152"/>
<stop offset="0.54" stop-color="#AA7A40"/>
<stop offset="0.62" stop-color="#C09657"/>
<stop offset="0.72" stop-color="#D4AF6B"/>
<stop offset="0.8" stop-color="#E1BF78"/>
<stop offset="0.87" stop-color="#E5C47C"/>
</linearGradient>
<linearGradient id="paint2_linear_1_4168" x1="1891.31" y1="595.06" x2="770.167" y2="-509.369" gradientUnits="userSpaceOnUse">
<stop stop-color="#F4E0AE"/>
<stop offset="0.2" stop-color="#EACD8C"/>
<stop offset="0.32" stop-color="#E5C47C"/>
<stop offset="0.36" stop-color="#E0BE77"/>
<stop offset="0.42" stop-color="#D2AD69"/>
<stop offset="0.5" stop-color="#BC9152"/>
<stop offset="0.54" stop-color="#AA7A40"/>
<stop offset="0.62" stop-color="#C09657"/>
<stop offset="0.72" stop-color="#D4AF6B"/>
<stop offset="0.8" stop-color="#E1BF78"/>
<stop offset="0.87" stop-color="#E5C47C"/>
</linearGradient>
<linearGradient id="paint3_linear_1_4168" x1="2137.28" y1="335.834" x2="1016.13" y2="-768.596" gradientUnits="userSpaceOnUse">
<stop stop-color="#F4E0AE"/>
<stop offset="0.2" stop-color="#EACD8C"/>
<stop offset="0.32" stop-color="#E5C47C"/>
<stop offset="0.36" stop-color="#E0BE77"/>
<stop offset="0.42" stop-color="#D2AD69"/>
<stop offset="0.5" stop-color="#BC9152"/>
<stop offset="0.54" stop-color="#AA7A40"/>
<stop offset="0.62" stop-color="#C09657"/>
<stop offset="0.72" stop-color="#D4AF6B"/>
<stop offset="0.8" stop-color="#E1BF78"/>
<stop offset="0.87" stop-color="#E5C47C"/>
</linearGradient>
<linearGradient id="paint4_linear_1_4168" x1="2432.85" y1="172.533" x2="1311.71" y2="-931.896" gradientUnits="userSpaceOnUse">
<stop stop-color="#F4E0AE"/>
<stop offset="0.2" stop-color="#EACD8C"/>
<stop offset="0.32" stop-color="#E5C47C"/>
<stop offset="0.36" stop-color="#E0BE77"/>
<stop offset="0.42" stop-color="#D2AD69"/>
<stop offset="0.5" stop-color="#BC9152"/>
<stop offset="0.54" stop-color="#AA7A40"/>
<stop offset="0.62" stop-color="#C09657"/>
<stop offset="0.72" stop-color="#D4AF6B"/>
<stop offset="0.8" stop-color="#E1BF78"/>
<stop offset="0.87" stop-color="#E5C47C"/>
</linearGradient>
<linearGradient id="paint5_linear_1_4168" x1="1798.86" y1="591.955" x2="677.709" y2="-512.475" gradientUnits="userSpaceOnUse">
<stop stop-color="#F4E0AE"/>
<stop offset="0.2" stop-color="#EACD8C"/>
<stop offset="0.32" stop-color="#E5C47C"/>
<stop offset="0.36" stop-color="#E0BE77"/>
<stop offset="0.42" stop-color="#D2AD69"/>
<stop offset="0.5" stop-color="#BC9152"/>
<stop offset="0.54" stop-color="#AA7A40"/>
<stop offset="0.62" stop-color="#C09657"/>
<stop offset="0.72" stop-color="#D4AF6B"/>
<stop offset="0.8" stop-color="#E1BF78"/>
<stop offset="0.87" stop-color="#E5C47C"/>
</linearGradient>
<linearGradient id="paint6_linear_1_4168" x1="1609.58" y1="596.189" x2="488.429" y2="-508.241" gradientUnits="userSpaceOnUse">
<stop stop-color="#F4E0AE"/>
<stop offset="0.2" stop-color="#EACD8C"/>
<stop offset="0.32" stop-color="#E5C47C"/>
<stop offset="0.36" stop-color="#E0BE77"/>
<stop offset="0.42" stop-color="#D2AD69"/>
<stop offset="0.5" stop-color="#BC9152"/>
<stop offset="0.54" stop-color="#AA7A40"/>
<stop offset="0.62" stop-color="#C09657"/>
<stop offset="0.72" stop-color="#D4AF6B"/>
<stop offset="0.8" stop-color="#E1BF78"/>
<stop offset="0.87" stop-color="#E5C47C"/>
</linearGradient>
<linearGradient id="paint7_linear_1_4168" x1="2244.47" y1="212.391" x2="1123.33" y2="-892.038" gradientUnits="userSpaceOnUse">
<stop stop-color="#F4E0AE"/>
<stop offset="0.2" stop-color="#EACD8C"/>
<stop offset="0.32" stop-color="#E5C47C"/>
<stop offset="0.36" stop-color="#E0BE77"/>
<stop offset="0.42" stop-color="#D2AD69"/>
<stop offset="0.5" stop-color="#BC9152"/>
<stop offset="0.54" stop-color="#AA7A40"/>
<stop offset="0.62" stop-color="#C09657"/>
<stop offset="0.72" stop-color="#D4AF6B"/>
<stop offset="0.8" stop-color="#E1BF78"/>
<stop offset="0.87" stop-color="#E5C47C"/>
</linearGradient>
<radialGradient id="paint8_radial_1_4168" cx="0" cy="0" r="1" gradientUnits="userSpaceOnUse" gradientTransform="translate(1544.74 -85.0002) rotate(-45.4304) scale(45.76 571.936)">
<stop stop-color="#8C4703"/>
<stop offset="0.09" stop-color="#7B3F03"/>
<stop offset="0.49" stop-color="#391D01"/>
<stop offset="0.78" stop-color="#100800"/>
<stop offset="0.93"/>
</radialGradient>
<radialGradient id="paint9_radial_1_4168" cx="0" cy="0" r="1" gradientUnits="userSpaceOnUse" gradientTransform="translate(1283.51 -55.0774) rotate(-45.4304) scale(45.76 571.936)">
<stop stop-color="#8C4703"/>
<stop offset="0.09" stop-color="#7B3F03"/>
<stop offset="0.49" stop-color="#391D01"/>
<stop offset="0.78" stop-color="#100800"/>
<stop offset="0.93"/>
</radialGradient>
</defs>
</svg>
